#!OML:ASF E:\Style4\Style4.ASF
:FULLY-SPECIFIED
:DEGREES
930
root -0.172471 17.5905 -2.03848 -1.14877 0.980997 1.8785
lowerback 6.57998 2.46674 -0.810363
upperback 2.33771 3.22618 -0.227953
thorax -1.30654 1.60947 -0.0253339
lowerneck -0.384505 -2.91722 -5.91638
upperneck 0.293438 -3.88597 5.23177
head 0.393339 -1.93906 2.6594
rclavicle -7.15625e-015 1.78906e-015
rhumerus 8.70515 17.4071 -28.6348
rradius 126.158
rwrist -47.9009
rhand 8.61025 18.9623
rfingers 7.12502
rthumb 33.807 -7.86411
lclavicle -7.15625e-015 1.78906e-015
lhumerus 16.0531 -16.8965 28.4147
lradius 125.428
lwrist 54.755
lhand 15.0383 21.9338
lfingers 7.12502
lthumb 39.8877 47.1936
rfemur -14.4633 -0.591136 16.424
rtibia 37.0758
rfoot -20.1406 -12.4971
rtoes -10.0422
lfemur -11.6465 -0.083655 -21.4534
ltibia 34.7346
lfoot -21.3636 9.42309
ltoes -16.1067
931
root -0.171248 17.6017 -2.03109 -1.15079 0.950908 1.87802
lowerback 6.56405 2.49047 -0.716264
upperback 2.14495 3.26158 -0.297627
thorax -1.48701 1.6279 -0.15675
lowerneck -0.654304 -2.73122 -5.94391
upperneck 0.666903 -3.63522 5.40987
head 0.548015 -1.81067 2.72107
rclavicle 2.9445e-014 3.97569e-016
rhumerus 9.76742 15.2442 -28.4885
rradius 126.972
rwrist -49.0784
rhand 8.66243 18.8051
rfingers 7.12502
rthumb 33.8566 -8.01037
lclavicle 2.9445e-014 3.97569e-016
lhumerus 16.9749 -14.8344 28.6183
lradius 125.907
lwrist 56.0474
lhand 15.009 22.0077
lfingers 7.12502
lthumb 39.8601 47.2758
rfemur -14.304 -0.535109 16.4255
rtibia 36.8272
rfoot -20.0939 -12.5076
rtoes -9.95786
lfemur -11.4259 -0.129864 -21.4608
ltibia 34.4147
lfoot -21.3414 9.46392
ltoes -15.9005
932
root -0.169233 17.6115 -2.02403 -1.17335 0.893028 1.8454
lowerback 6.53551 2.49365 -0.634097
upperback 1.98172 3.26999 -0.32654
thorax -1.63291 1.63236 -0.236256
lowerneck -0.929446 -2.5301 -5.85474
upperneck 0.953734 -3.36166 5.41538
head 0.668336 -1.67058 2.7052
rclavicle -3.27498e-014 1.49089e-014
rhumerus 11.0309 13.0167 -28.4079
rradius 127.538
rwrist -50.2159
rhand 8.55494 18.6756
rfingers 7.12502
rthumb 33.7545 -8.16236
lclavicle -3.27498e-014 1.49089e-014
lhumerus 17.8279 -12.6433 28.9333
lradius 126.165
lwrist 57.1702
lhand 15.1255 21.8714
lfingers 7.12502
lthumb 39.9698 47.1066
rfemur -14.1351 -0.479333 16.4598
rtibia 36.5843
rfoot -19.9949 -12.5372
rtoes -10.1741
lfemur -11.1922 -0.171187 -21.4403
ltibia 34.0932
lfoot -21.2241 9.65374
ltoes -16.3394
933
root -0.167868 17.6195 -2.01666 -1.17366 0.845702 1.91079
lowerback 6.49418 2.52588 -0.579251
upperback 1.81127 3.31338 -0.452389
thorax -1.77487 1.65414 -0.402292
lowerneck -1.06376 -2.36167 -5.69731
upperneck 1.07326 -3.13726 5.51741
head 0.71504 -1.55547 2.71157
rclavicle -9.67833e-015 1.19271e-014
rhumerus 12.1671 10.6215 -28.4487
rradius 127.995
rwrist -51.4077
rhand 8.36519 18.668
rfingers 7.12502
rthumb 33.5742 -8.20924
lclavicle -9.67833e-015 1.19271e-014
lhumerus 18.961 -10.3787 29.1463
lradius 126.374
lwrist 58.3325
lhand 14.9765 22.0484
lfingers 7.12502
lthumb 39.8295 47.3256
rfemur -13.9862 -0.408789 16.3831
rtibia 36.3497
rfoot -19.9296 -12.5423
rtoes -10.469
lfemur -10.9858 -0.178919 -21.5225
ltibia 33.7702
lfoot -21.0672 9.82314
ltoes -16.8045
934
root -0.166213 17.6291 -2.00813 -1.1559 0.7809 1.97498
lowerback 6.35889 2.59488 -0.522336
upperback 1.67657 3.40719 -0.564383
thorax -1.82802 1.70091 -0.553526
lowerneck -1.19659 -2.21002 -5.50997
upperneck 1.23222 -2.93692 5.55761
head 0.773741 -1.45243 2.69144
rclavicle 7.10655e-015 -8.24956e-015
rhumerus 13.2573 8.00192 -28.4659
rradius 128.367
rwrist -52.6106
rhand 7.99407 18.6413
rfingers 7.12502
rthumb 33.2214 -8.31189
lclavicle 7.10655e-015 -8.24956e-015
lhumerus 20.1891 -7.96835 29.4049
lradius 126.454
lwrist 59.6129
lhand 15.0869 22.0937
lfingers 7.12502
lthumb 39.9335 47.3398
rfemur -13.86 -0.328517 16.3062
rtibia 36.1109
rfoot -19.8039 -12.5606
rtoes -10.5205
lfemur -10.7875 -0.185555 -21.602
ltibia 33.4535
lfoot -21.0302 9.80016
ltoes -16.3109
935
root -0.165265 17.6403 -2.00167 -1.15034 0.769979 2.00627
lowerback 6.18781 2.65079 -0.501726
upperback 1.61234 3.48381 -0.592499
thorax -1.79565 1.73925 -0.59297
lowerneck -1.54689 -2.0596 -5.44199
upperneck 1.53356 -2.73193 5.62546
head 0.91866 -1.34419 2.70158
rclavicle -2.98177e-016 -2.08724e-015
rhumerus 14.6371 5.17464 -28.4686
rradius 128.512
rwrist -53.8868
rhand 7.61206 18.3368
rfingers 7.12502
rthumb 32.8581 -8.69329
lclavicle -2.98177e-016 -2.08724e-015
lhumerus 21.5332 -5.4119 29.8993
lradius 126.333
lwrist 60.9268
lhand 15.4181 22.2328
lfingers 7.12502
lthumb 40.2451 47.3845
rfemur -13.7064 -0.256961 16.2841
rtibia 35.8608
rfoot -19.6409 -12.6756
rtoes -10.7791
lfemur -10.5977 -0.237634 -21.6348
ltibia 33.153
lfoot -20.9514 9.78183
ltoes -15.9197
936
root -0.164933 17.6508 -1.99538 -1.14425 0.77146 2.0088
lowerback 6.14962 2.67712 -0.440079
upperback 1.46764 3.52127 -0.637725
thorax -1.91654 1.75749 -0.679134
lowerneck -1.93118 -1.90671 -5.38877
upperneck 1.96158 -2.52853 5.74931
head 1.11209 -1.23521 2.73486
rclavicle -4.54471e-014 5.66536e-015
rhumerus 16.0846 2.48668 -28.675
rradius 128.467
rwrist -54.9564
rhand 7.34001 17.8902
rfingers 7.12502
rthumb 32.5993 -9.19371
lclavicle -4.54471e-014 5.66536e-015
lhumerus 22.9091 -3.09177 30.5014
lradius 126.039
lwrist 62.1129
lhand 15.5135 22.7099
lfingers 7.12502
lthumb 40.3348 47.834
rfemur -13.5282 -0.174942 16.2896
rtibia 35.5723
rfoot -19.5683 -12.7202
rtoes -10.78
lfemur -10.4316 -0.201582 -21.6298
ltibia 32.8746
lfoot -20.7995 9.79999
ltoes -16.1677
937
root -0.163585 17.66 -1.99183 -1.10903 0.7615 1.90788
lowerback 6.17718 2.69622 -0.161261
upperback 1.26316 3.56074 -0.742271
thorax -2.11842 1.77496 -0.952595
lowerneck -2.24101 -1.75119 -5.2373
upperneck 2.38752 -2.33041 5.89131
head 1.29148 -1.12799 2.75814
rclavicle -2.78236e-014 -6.06293e-015
rhumerus 17.2567 -0.113039 -29.0363
rradius 128.256
rwrist -55.8227
rhand 7.51731 17.8356
rfingers 7.12502
rthumb 32.768 -9.21329
lclavicle -2.78236e-014 -6.06293e-015
lhumerus 24.2826 -0.871394 31.0361
lradius 125.664
lwrist 63.3855
lhand 15.4621 23.3138
lfingers 7.12502
lthumb 40.2864 48.4528
rfemur -13.3858 -0.106505 16.4007
rtibia 35.2537
rfoot -19.474 -12.7012
rtoes -10.5069
lfemur -10.3244 -0.222749 -21.5133
ltibia 32.6131
lfoot -20.7204 9.79766
ltoes -15.9492
938
root -0.161855 17.6713 -1.98728 -1.07367 0.746576 1.80668
lowerback 6.20489 2.70672 0.126349
upperback 1.04869 3.58955 -0.857546
thorax -2.32924 1.78575 -1.24178
lowerneck -2.55939 -1.5818 -5.04868
upperneck 2.89947 -2.11988 6.00858
head 1.49924 -1.01309 2.76855
rclavicle 2.86592e-014 -1.00883e-014
rhumerus 18.3523 -2.65309 -29.4711
rradius 127.93
rwrist -56.9501
rhand 8.04599 18.042
rfingers 7.12502
rthumb 33.2708 -8.90065
lclavicle 2.86592e-014 -1.00883e-014
lhumerus 25.5955 1.23095 31.5105
lradius 125.108
lwrist 64.4659
lhand 15.4066 23.4787
lfingers 7.12502
lthumb 40.2343 48.6337
rfemur -13.2282 -0.040893 16.5134
rtibia 34.9041
rfoot -19.3377 -12.7415
rtoes -10.4991
lfemur -10.2095 -0.28446 -21.4091
ltibia 32.3513
lfoot -20.6604 9.85145
ltoes -15.8689
939
root -0.161514 17.6843 -1.98355 -1.02002 0.752116 1.74214
lowerback 6.32765 2.70194 0.238815
upperback 0.777105 3.58811 -0.895692
thorax -2.66831 1.78079 -1.35938
lowerneck -2.88834 -1.40516 -4.9591
upperneck 3.45646 -1.89898 6.10647
head 1.72572 -0.893205 2.79371
rclavicle 1.05309e-014 -4.96962e-016
rhumerus 19.6601 -5.04771 -29.899
rradius 127.47
rwrist -58.1295
rhand 8.17224 18.1073
rfingers 7.12502
rthumb 33.3908 -8.80959
lclavicle 1.05309e-014 -4.96962e-016
lhumerus 26.7789 3.08273 31.9088
lradius 124.351
lwrist 65.2464
lhand 14.9456 23.3354
lfingers 7.12502
lthumb 39.8004 48.6213
rfemur -13.077 0.00923242 16.6
rtibia 34.549
rfoot -19.2018 -12.8214
rtoes -10.5219
lfemur -10.1004 -0.357526 -21.3388
ltibia 32.0754
lfoot -20.5486 9.89475
ltoes -15.8091
940
root -0.161661 17.6967 -1.97776 -1.00301 0.74102 1.71113
lowerback 6.55888 2.71447 0.132943
upperback 0.439218 3.59754 -0.813958
thorax -3.15787 1.78243 -1.24165
lowerneck -3.09627 -1.23455 -4.94446
upperneck 4.05153 -1.68607 6.10836
head 1.94437 -0.781567 2.80249
rclavicle 3.41537e-014 -7.00716e-015
rhumerus 21.0745 -7.2037 -30.222
rradius 126.791
rwrist -59.0267
rhand 8.09268 18.0933
rfingers 7.12502
rthumb 33.3151 -8.83986
lclavicle 3.41537e-014 -7.00716e-015
lhumerus 27.8128 4.77285 32.4234
lradius 123.421
lwrist 66.1316
lhand 14.2967 23.4666
lfingers 7.12502
lthumb 39.1893 48.9322
rfemur -12.8878 0.078147 16.6439
rtibia 34.209
rfoot -19.021 -12.9157
rtoes -10.7492
lfemur -9.91513 -0.378673 -21.3024
ltibia 31.7528
lfoot -20.4529 9.93201
ltoes -15.8181
941
root -0.159327 17.7074 -1.97064 -1.02979 0.715539 1.71165
lowerback 6.01549 2.75511 0.302769
upperback 0.647353 3.66348 -0.909005
thorax -2.62116 1.8178 -1.40198
lowerneck -3.38111 -1.08618 -4.85115
upperneck 4.15015 -1.49344 6.28692
head 2.01839 -0.675254 2.85303
rclavicle -6.63832e-015 -1.04362e-014
rhumerus 22.7761 -9.84599 -30.7999
rradius 125.834
rwrist -59.6229
rhand 8.02976 18.1551
rfingers 7.12502
rthumb 33.2553 -8.7909
lclavicle -6.63832e-015 -1.04362e-014
lhumerus 29.5444 6.88432 33.0582
lradius 122.347
lwrist 66.9806
lhand 14.0026 23.6328
lfingers 7.12502
lthumb 38.912 49.178
rfemur -12.667 0.132174 16.6331
rtibia 33.8949
rfoot -18.8959 -12.9251
rtoes -10.7722
lfemur -9.65817 -0.443923 -21.3165
ltibia 31.3954
lfoot -20.3566 10.0314
ltoes -15.794
942
root -0.154725 17.7165 -1.96191 -1.02366 0.738169 1.80898
lowerback 5.77337 2.77138 0.332038
upperback 0.620573 3.68493 -1.01369
thorax -2.50425 1.82884 -1.5147
lowerneck -3.56907 -0.923052 -4.7007
upperneck 4.44475 -1.29367 6.40055
head 2.13697 -0.566067 2.87341
rclavicle 2.70493e-014 -5.71195e-015
rhumerus 24.3393 -12.0617 -31.455
rradius 124.816
rwrist -60.2229
rhand 7.83201 18.1581
rfingers 7.12502
rthumb 33.0673 -8.82788
lclavicle 2.70493e-014 -5.71195e-015
lhumerus 31.0472 8.58266 33.7368
lradius 121.295
lwrist 67.5398
lhand 13.7682 23.5121
lfingers 7.12502
lthumb 38.691 49.1199
rfemur -12.4803 0.12499 16.5021
rtibia 33.5971
rfoot -18.7993 -12.9256
rtoes -10.683
lfemur -9.42812 -0.551674 -21.4563
ltibia 31.0246
lfoot -20.3925 10.0268
ltoes -14.7963
